PathFileType	4	(X/Y/Z)	/Users/niels/Desktop/University/Third Semester/Perception and Action/Exam/Gymnastics Motion Tracking/Code for Gym Tracking/Analyzed Data/Webcam_Backflip/id4_4_baseline_Sports2D/id4_4_baseline_Sports2D_px_person00.trc
DataRate	CameraRate	NumFrames	NumMarkers	Units	OrigDataRate	OrigDataStartFrame	OrigNumFrames
29.8125	29.8125	9	22	m	29.8125	140	160
Frame#	Time	Hip			RHip			RKnee			RAnkle			RBigToe			RSmallToe			RHeel			LHip			LKnee			LAnkle			LBigToe			LSmallToe			LHeel			Neck			Head			Nose			RShoulder			RElbow			RWrist			LShoulder			LElbow			LWrist		
		X1	Y1	Z1	X2	Y2	Z2	X3	Y3	Z3	X4	Y4	Z4	X5	Y5	Z5	X6	Y6	Z6	X7	Y7	Z7	X8	Y8	Z8	X9	Y9	Z9	X10	Y10	Z10	X11	Y11	Z11	X12	Y12	Z12	X13	Y13	Z13	X14	Y14	Z14	X15	Y15	Z15	X16	Y16	Z16	X17	Y17	Z17	X18	Y18	Z18	X19	Y19	Z19	X20	Y20	Z20	X21	Y21	Z21	X22	Y22	Z22
140	4.696016771488469	0.9699189354124278	-0.5647226601439138	0.0	0.9693712058465953	-0.563526440209274	0.0	0.9887093401442482	-0.6705563234903603	0.0	0.9619257607792859	-0.7770057153785723	0.0	0.993201490420062	-0.797425369642942	0.0	0.9858595794786382	-0.7984175748123659	0.0	0.953591883582936	-0.7923147903530443	0.0	0.9712791893067214	-0.5620881778206119	0.0	0.9827981060732216	-0.6708276831327149	0.0	0.9599171522836881	-0.7752683226527773	0.0	0.9885321514170267	-0.7965900007583845	0.0	0.9832009096937449	-0.7923134667670538	0.0	0.9488947295810167	-0.7871365007057718	0.0	0.967236432648028	-0.41362599925375265	0.0	0.9935968061230108	-0.34012306060194614	0.0	0.9971753148283033	-0.37765301086312697	0.0	0.9629589876388326	-0.423705712507588	0.0	1.0107342691988868	-0.3779339945531068	0.0	1.0329422007315618	-0.3216741156826504	0.0	0.9631471093243531	-0.4211978307909025	0.0	1.0063146780214645	-0.3807118066312163	0.0	1.0312133761617142	-0.32445835481433216	0.0
141	4.729559748427672	0.9688836817655018	-0.5732499049283393	0.0	0.9679274309468994	-0.5723128813939831	0.0	0.9847888331592235	-0.6791897814104112	0.0	0.9608004421521347	-0.7852791997227659	0.0	0.9916900535851676	-0.8048539794620112	0.0	0.9845508241016686	-0.8057210833494128	0.0	0.9532200748310341	-0.8000908582950795	0.0	0.9707007100767885	-0.570857020381142	0.0	0.9809542340263497	-0.6791490136883828	0.0	0.9594474121962127	-0.783334421047791	0.0	0.9885171598522957	-0.8035240697519143	0.0	0.9824418174773654	-0.7995698783022246	0.0	0.9483826808332835	-0.7946797380098787	0.0	0.9673221753747021	-0.42312825191187664	0.0	0.9932466113271051	-0.35099009521612917	0.0	0.9969647880971129	-0.3881728906945507	0.0	0.962910992261138	-0.433349647870037	0.0	1.0116830443195335	-0.3939777964966212	0.0	1.0312887280391965	-0.33623052288650096	0.0	0.9624577983247915	-0.4311141805211388	0.0	1.0042474157320262	-0.3986053459985843	0.0	1.0268997871866046	-0.34579923059664286	0.0
142	4.763102725366876	0.9678904145656441	-0.5812667348705278	0.0	0.9665017866243085	-0.5804778215810413	0.0	0.9818654375602435	-0.687118761174218	0.0	0.9599622735522293	-0.7926423142138196	0.0	0.9905483439780624	-0.8114888149758996	0.0	0.9835938064987759	-0.8123688406218135	0.0	0.9531051334627355	-0.8069956996838356	0.0	0.9702533685039001	-0.5789449353277659	0.0	0.979613888250548	-0.6867781031675934	0.0	0.9592710216758678	-0.7904686871938679	0.0	0.9887869748279302	-0.8097111791882705	0.0	0.9819636317509106	-0.806166575001736	0.0	0.9482559227444999	-0.8015120237162996	0.0	0.9672531408201003	-0.4321181185455609	0.0	0.9932953298617989	-0.3611673838947298	0.0	0.9971336800359129	-0.39812767549072275	0.0	0.9624795535023704	-0.4426723134248456	0.0	1.012041268614758	-0.4121710502324219	0.0	1.0300457604913886	-0.3528316406537676	0.0	0.9617597012538036	-0.44055192349763367	0.0	1.0006479387757239	-0.4195327584137323	0.0	1.0215652947790157	-0.3737106938187013	0.0
143	4.796645702306079	0.967000552307063	-0.5880503196961505	0.0	0.9652076848291743	-0.5872640336112595	0.0	0.980133375175874	-0.6935441209466657	0.0	0.9594053391689896	-0.7985723204369303	0.0	0.9896897920875951	-0.8169047087081852	0.0	0.9829016032878692	-0.8178450143518552	0.0	0.9531929865784277	-0.8126057696825321	0.0	0.9700355123808047	-0.5856524395058081	0.0	0.978818879374656	-0.6930079472531624	0.0	0.9593083919214834	-0.7961961942536756	0.0	0.9890619610455197	-0.8148426451257469	0.0	0.9817079846697607	-0.8116199274500684	0.0	0.9484684684758065	-0.8072634167091174	0.0	0.9672179574515969	-0.4395872529881252	0.0	0.9936649449557041	-0.36944199087700114	0.0	0.9977587428058167	-0.40652429127713735	0.0	0.9618253623757694	-0.4507510127867024	0.0	1.0112282028865556	-0.43180675390304657	0.0	1.029344100191915	-0.37133740155328426	0.0	0.9611976687957597	-0.44872971749996665	0.0	0.9951586569412512	-0.4429204145306441	0.0	1.0149901535285686	-0.40819392490024614	0.0
144	4.830188679245282	0.966305294366865	-0.5930273811594519	0.0	0.9641560469656195	-0.5921317036835002	0.0	0.9796056760018347	-0.697881627743568	0.0	0.9590526725467852	-0.8027751750851303	0.0	0.9890274078287749	-0.8208763475083928	0.0	0.9823712853664291	-0.8218194035763176	0.0	0.9533160715071268	-0.816758608710383	0.0	0.9700774286849098	-0.5904932632989731	0.0	0.978680416543851	-0.6973159877622255	0.0	0.9594376657954315	-0.8002754196888003	0.0	0.9892725463985955	-0.8187649270857686	0.0	0.9817262927443517	-0.8156424700825922	0.0	0.9488978904817817	-0.8116592684243354	0.0	0.9673724153434926	-0.44478679027206797	0.0	0.9940717671553526	-0.3749767928320847	0.0	0.9986909323895344	-0.4125713724013601	0.0	0.9611374139354484	-0.4568169283886328	0.0	1.0088007518621553	-0.4519535694319546	0.0	1.029187346093075	-0.391525357406871	0.0	0.9609613750781514	-0.4550979476500584	0.0	0.9883596826304512	-0.46717324246780234	0.0	1.0079503505632659	-0.44633996654334196	0.0
145	4.863731656184486	0.965857395034715	-0.5957603881269502	0.0	0.96343582321126	-0.594712773885689	0.0	0.9801174168735606	-0.6998288267092245	0.0	0.9587953160467595	-0.8050868480408729	0.0	0.9885817733344254	-0.8233044785738858	0.0	0.9819804074780973	-0.8241886394603044	0.0	0.9532677277519289	-0.819394675295228	0.0	0.9702992358053038	-0.5931370438064218	0.0	0.9792964652277351	-0.6993755582472468	0.0	0.9595291152966182	-0.8025456537565447	0.0	0.9895115187666658	-0.8213262269440839	0.0	0.9821063630863578	-0.8181533164732053	0.0	0.9493835081088988	-0.8144722617041096	0.0	0.9677275535120085	-0.44731961950989174	0.0	0.9942207006680934	-0.3774237076413184	0.0	0.9996178900029087	-0.41573044595007735	0.0	0.960510637604165	-0.46036920673117837	0.0	1.0045489712680957	-0.47144340741156204	0.0	1.0294829737696158	-0.41299891165797764	0.0	0.9612057312739992	-0.4592719167182601	0.0	0.981773572452246	-0.48920093977727613	0.0	1.002691358044144	-0.48124052404327966	0.0
146	4.897274633123689	0.9656375456259988	-0.595970851636237	0.0	0.9630653270466166	-0.5948129810985752	0.0	0.9813291983601551	-0.6993428704423497	0.0	0.958586663378431	-0.8054328418638256	0.0	0.9885334120553064	-0.8241658999768097	0.0	0.9818155302873501	-0.8249972723495544	0.0	0.9529373539467697	-0.8204339632455174	0.0	0.9706046114263287	-0.5933698546968859	0.0	0.9806991090018072	-0.6990379167406956	0.0	0.9595423498512199	-0.8028619818118795	0.0	0.9900243093937341	-0.8223410186993617	0.0	0.9829895489245845	-0.8191487074906586	0.0	0.949806318993829	-0.815508079161926	0.0	0.9682267539157731	-0.44714988121531957	0.0	0.993997096075337	-0.37686528916069373	0.0	1.0002280466904112	-0.4158308295750412	0.0	0.9599675282458424	-0.4612549807117924	0.0	0.9985674611657421	-0.48889141259127683	0.0	1.0300673542827556	-0.435207704623073	0.0	0.9620390591835165	-0.4609984543815801	0.0	0.9768125832884336	-0.5056896128498918	0.0	1.0015581469407748	-0.5057514690689761	0.0
147	4.930817610062892	0.9656060328832798	-0.593631918877384	0.0	0.9629495617114792	-0.5924750067065148	0.0	0.9827569352622592	-0.6966047364400465	0.0	0.958453242343994	-0.8038208668296005	0.0	0.9890036809722865	-0.8234558341226297	0.0	0.9818549403725028	-0.8242845293524211	0.0	0.9523771834123121	-0.819724252749147	0.0	0.9709880860099902	-0.5911350925268744	0.0	0.9828179978109582	-0.6963688857176159	0.0	0.9595563423979637	-0.8011407034260072	0.0	0.9910233333882791	-0.8216214111886748	0.0	0.9844401155996693	-0.8185310712884544	0.0	0.9501090377853525	-0.8145866725987878	0.0	0.9688689689301605	-0.44454214040245343	0.0	0.9934533246171343	-0.37368104626362114	0.0	1.0003202323928222	-0.4131296488339408	0.0	0.9594944735199579	-0.45969625183296203	0.0	0.991220441039299	-0.5029027016683026	0.0	1.0306022436524174	-0.4575725596658482	0.0	0.9635396883055604	-0.4602303878744503	0.0	0.9738259379634792	-0.5151292675328014	0.0	1.0047038143317837	-0.5184807901864887	0.0
148	4.964360587002096	0.9657779920025633	-0.5890570598112719	0.0	0.9629188589177847	-0.5880359222153495	0.0	0.9838656421083598	-0.6920488551027683	0.0	0.9584313541325131	-0.8003739772981733	0.0	0.989890030026525	-0.821106224992352	0.0	0.9819167486415076	-0.8220157915388496	0.0	0.9517421892341549	-0.8171465058887389	0.0	0.9715350303606923	-0.5866802651334445	0.0	0.9854258082185344	-0.6917309894453734	0.0	0.9596767117684398	-0.7974535555313087	0.0	0.9925388254146859	-0.8190340613744628	0.0	0.9863621303509543	-0.8161313710100173	0.0	0.9502615243160842	-0.8116584951178829	0.0	0.9696920579791495	-0.4399439015978708	0.0	0.9926447884957319	-0.3684550586269997	0.0	0.9998399896035819	-0.40821476036822146	0.0	0.9590396474576821	-0.45618121028816955	0.0	0.9830411529651079	-0.5124844381187865	0.0	1.030396025908901	-0.47957190532657745	0.0	0.9657373658816758	-0.45720604765922124	0.0	0.9723835296556071	-0.5181814141143263	0.0	1.009854925685433	-0.5238329291694198	0.0
